PathFileType	4	(x/y/z)	S02_M20_T09
DataRate	CameraRate	NumFrames	NumMarkers	Units	OrigDataRate	OrigDataStartFrame	OrigNumFrames
240	240	4	51	mm	240	57	453
Frame#	Time	Sternum			R.Acromium			L.Acromium			Top.Head			R.ASIS			L.ASIS			R.PSIS			L.PSIS			R.Great.Tro			L.Great.Tro			R.Iliac.Crest			L.Iliac.Crest			V.Sacral			R.Thigh.Upper.Post			R.Thigh.Lower.Ant			R.Thigh.Lower.Post			R.Thigh.Upper.Ant			R.Knee.Lat			R.Knee.Med			R.Shank.Upper.Post			R.Shank.Lower.Ant			R.Shank.Lower.Post			R.Shank.Upper.Ant			R.Ankle.Lat			R.Ankle.Med			R.Heel.Upper			R.Heel.Med			R.Heel.Lat			R.Toe.Lat			R.Toe.Med			R.Toe.Tip			L.Thigh.Upper.Post			L.Thigh.Lower.Ant			L.Thigh.Lower.Post			L.Thigh.Upper.Ant			L.Knee.Lat			L.Knee.Med			L.Shank.Upper.Post			L.Shank.Lower.Ant			L.Shank.Lower.Post			L.Shank.Upper.Ant			L.Ankle.Lat			L.Ankle.Med			L.Heel.Upper			L.Heel.Med			L.Heel.Lat			L.Toe.Lat			L.Toe.Med			L.Toe.Tip			Cervical.Spine			Back			
		X1	Y1	Z1	X2	Y2	Z2	X3	Y3	Z3	X4	Y4	Z4	X5	Y5	Z5	X6	Y6	Z6	X7	Y7	Z7	X8	Y8	Z8	X9	Y9	Z9	X10	Y10	Z10	X11	Y11	Z11	X12	Y12	Z12	X13	Y13	Z13	X14	Y14	Z14	X15	Y15	Z15	X16	Y16	Z16	X17	Y17	Z17	X18	Y18	Z18	X19	Y19	Z19	X20	Y20	Z20	X21	Y21	Z21	X22	Y22	Z22	X23	Y23	Z23	X24	Y24	Z24	X25	Y25	Z25	X26	Y26	Z26	X27	Y27	Z27	X28	Y28	Z28	X29	Y29	Z29	X30	Y30	Z30	X31	Y31	Z31	X32	Y32	Z32	X33	Y33	Z33	X34	Y34	Z34	X35	Y35	Z35	X36	Y36	Z36	X37	Y37	Z37	X38	Y38	Z38	X39	Y39	Z39	X40	Y40	Z40	X41	Y41	Z41	X42	Y42	Z42	X43	Y43	Z43	X44	Y44	Z44	X45	Y45	Z45	X46	Y46	Z46	X47	Y47	Z47	X48	Y48	Z48	X49	Y49	Z49	X50	Y50	Z50	X51	Y51	Z51	

57	0.23333	-1134	1092.6	270.81	-1247.7	1330.5	403.08	-1243.2	1325	108.46	-1205.4	1614.1	251.5	-1180.9	903.7	388.85	-1152.2	907.84	174.89	-1380.9	957.25	312.95	-1386.1	970.1	239.38	-1276.5	787.99	472.66	-1262.4	833.09	77.027	-1295.1	960.88	440.43	-1268.9	965.31	98.181	-1411.7	918.6	264.4	-1245.6	592.62	471.5	-1183.3	512.32	457.59	-1255.7	502.87	460.21	-1177	601.67	465.77	-1242.9	427.78	459.14	-1223.1	401.68	314.96	-1434.6	366.44	426.39	-1467.1	261.48	415.42	-1496.8	322.57	415.22	-1414.5	302.14	435.79	-1564	252.58	403.18	-1534.7	249.79	320.55	-1589.9	302.58	344.43	-1605.7	281.67	310.79	-1628.1	288.03	374.09	-1580.1	133.29	418.22	-1553.1	106.51	315.38	-1522.4	69.464	375.01	-1241.5	594.23	109.31	-1148.1	536.13	122.5	-1222.3	509.04	136.63	-1176.8	623.59	96.281	-1150.3	452.03	139.22	-1157.4	456.36	275.26	-1232	284.87	143.14	-1169.7	195.5	166.95	-1238	214.56	160.28	-1171.6	268.85	147.62	-1221.8	97.374	181.75	-1217.6	96.28	263.98	-1286.5	68.963	217.38	-1279.4	43.685	250.94	-1279.8	41.063	189.34	-1113.4	34.206	166.13	-1096.6	43.905	276.83	-1033.8	59.156	231.39	-1330.6	1390.6	254.19	-1403.7	1138	271.21
58	0.2375	-1129.3	1093.7	270.88	-1243.5	1331.8	402.97	-1238.2	1325.9	108.09	-1200.4	1615.2	251.21	-1175.9	905.14	388.53	-1147.5	908.37	174.66	-1376.1	958.58	312.37	-1381.3	971.36	238.79	-1270.9	789.32	472.53	-1258.3	833.77	76.796	-1290.4	962.29	439.96	-1264.1	966.22	97.749	-1406.9	919.95	263.87	-1237.5	594.27	471.78	-1174.3	514.76	458	-1246.5	504.42	460.53	-1169.1	604.18	466.14	-1232.4	429.48	459.42	-1212.5	403.69	315.22	-1423.8	366.99	426.14	-1455.2	261.68	415.12	-1485.6	322.71	414.89	-1403	302.75	435.53	-1552.3	252.41	402.65	-1523	249.65	320.15	-1579.1	301.71	343.67	-1594.5	280.36	310.11	-1617	287.01	373.41	-1566.9	133.08	418.32	-1539.4	106.14	315.52	-1508.6	69.702	375.43	-1239.4	595	109.43	-1146.5	536.07	122.4	-1220.8	509.63	136.64	-1174.4	623.8	96.215	-1149.2	452.04	139.14	-1155.9	456.42	275.17	-1231.4	285.17	143.09	-1169.4	195.58	166.88	-1237.4	214.99	160.05	-1171.1	268.95	147.54	-1221.7	97.501	181.74	-1217.5	96.432	263.94	-1286.4	69.107	217.39	-1279.3	43.842	250.94	-1279.8	41.209	189.34	-1113.3	34.191	166.13	-1096.5	43.894	276.82	-1033.8	59.074	231.38	-1325.9	1391.7	253.59	-1398.9	1139.1	270.13
59	0.24167	-1124.7	1094.8	270.95	-1239.4	1333	402.85	-1233.2	1326.9	107.73	-1195.4	1616.3	250.94	-1170.8	906.59	388.19	-1142.8	908.92	174.41	-1371.2	959.94	311.84	-1376.4	972.65	238.24	-1265.4	790.68	472.41	-1254.4	834.46	76.584	-1285.7	963.76	439.48	-1259.3	967.15	97.343	-1402.2	921.32	263.4	-1229.5	595.96	472.05	-1165.3	517.26	458.35	-1237.3	506.02	460.83	-1161.3	606.74	466.47	-1222	431.23	459.64	-1202	405.78	315.43	-1413	367.41	425.9	-1443.2	261.73	414.8	-1474.5	322.67	414.58	-1391.3	303.22	435.22	-1540.5	252.01	402.14	-1511.3	249.3	319.77	-1568.2	300.57	342.96	-1583.2	278.78	309.48	-1605.8	285.71	372.76	-1553.5	132.64	418.43	-1525.4	105.61	315.65	-1494.4	69.834	375.82	-1237.2	595.77	109.54	-1144.8	536.04	122.31	-1219.3	510.24	136.65	-1172	624.02	96.158	-1148.1	452.08	139.07	-1154.5	456.49	275.08	-1230.8	285.49	143.05	-1169.1	195.68	166.82	-1236.9	215.41	159.84	-1170.6	269.06	147.46	-1221.6	97.639	181.73	-1217.4	96.595	263.91	-1286.3	69.26	217.4	-1279.2	44.01	250.93	-1279.7	41.36	189.34	-1113.3	34.176	166.13	-1096.5	43.888	276.81	-1033.7	58.991	231.37	-1321.2	1392.8	253.01	-1394.2	1140.2	269.06
60	0.24583	-1120	1095.9	271.03	-1235.2	1334.3	402.71	-1228.2	1327.8	107.39	-1190.4	1617.4	250.69	-1165.8	908.06	387.82	-1138.1	909.49	174.13	-1366.4	961.33	311.35	-1371.7	973.93	237.73	-1259.8	792.07	472.29	-1250.5	835.15	76.394	-1281	965.26	439	-1254.7	968.08	96.96	-1397.5	922.7	262.98	-1221.5	597.7	472.31	-1156.4	519.81	458.66	-1228.2	507.68	461.09	-1153.4	609.32	466.76	-1211.7	433.05	459.8	-1191.4	407.96	315.59	-1402.3	367.71	425.66	-1431.1	261.63	414.47	-1463.3	322.46	414.28	-1379.4	303.56	434.88	-1528.6	251.39	401.64	-1499.6	248.77	319.41	-1557.3	299.19	342.28	-1571.9	276.92	308.89	-1594.5	284.12	372.14	-1539.9	131.99	418.55	-1511.3	104.92	315.77	-1479.8	69.874	376.17	-1235.1	596.57	109.65	-1143.2	536.04	122.21	-1217.9	510.87	136.67	-1169.6	624.26	96.109	-1147.1	452.15	139	-1153.1	456.59	275.01	-1230.2	285.84	143.02	-1168.9	195.79	166.74	-1236.4	215.85	159.66	-1170.2	269.21	147.38	-1221.5	97.79	181.72	-1217.3	96.77	263.87	-1286.2	69.422	217.41	-1279.2	44.189	250.93	-1279.7	41.518	189.34	-1113.3	34.161	166.12	-1096.4	43.885	276.8	-1033.7	58.905	231.36	-1316.5	1393.9	252.43	-1389.5	1141.3	268.01
